# xmcd
#
# Track frame offsets: 
#        150
#        13080
#        24563
#        33309
#        44369
#        55614
#        67656
#        78521
#        90101
#        104450
#        119391
#        131070
#        143510
#        157231
#        169103
#        183006
#        197827
#        211503
#        225729
#        240076
#
# Disc length: 3343 seconds
#
# Revision: 0
# Processed by: cddbd v1.5.2PL0 Copyright (c) Steve Scherf et al.
# Submitted via: ExactAudioCopy v0.99pb4
#
DISCID=f30d0d14
DTITLE=Frank Sinatra - Frank Sinatra Collection Disc 4
DYEAR=2007
DGENRE=Vocal
TTITLE0=Goodnight Irene
TTITLE1=The Continental
TTITLE2=It's Only A Paper Moon
TTITLE3=My Blue Heaven
TTITLE4=When You're Smiling
TTITLE5=Lover
TTITLE6=Should I (Reveal)?
TTITLE7=You Do Something For Me
TTITLE8=Peachtree Street
TTITLE9=There's Something Missing
TTITLE10=American Beauty Rose
TTITLE11=Kisses And Tears
TTITLE12=When The Sun Goes Down
TTITLE13=Chattanoogie Shoe Shine Boy
TTITLE14=God's Country
TTITLE15=Sheila
TTITLE16=Sorry
TTITLE17=Sunshine Cake
TTITLE18=We've Got A Sure Thing
TTITLE19=The Old Master Painter
EXTD=
EXTT0=
EXTT1=
EXTT2=
EXTT3=
EXTT4=
EXTT5=
EXTT6=
EXTT7=
EXTT8=
EXTT9=
EXTT10=
EXTT11=
EXTT12=
EXTT13=
EXTT14=
EXTT15=
EXTT16=
EXTT17=
EXTT18=
EXTT19=
PLAYORDER=
